<svg xmlns="http://www.w3.org/2000/svg" viewBox="0 0 561.88 86.05"><defs><style>.cls-1{fill:#e43d30}</style></defs><g id="Layer_2" data-name="Layer 2"><g id="Layer_1-2" data-name="Layer 1"><path class="cls-1" d="M129.38 44.05v30A11.65 11.65 0 01127 81.9c-3.5 4.26-7.91 4.72-12.08 3.38-4.33-1.39-7-5.44-7-10.37-.08-9.33 0-18.65 0-28 0-1.5 0-3-.15-4.49-.05-.59-.34-1.44-.76-1.62a1.87 1.87 0 00-1.67.58c-2.2 2.91-4.38 5.84-6.36 8.9a3.08 3.08 0 00.3 2.66c1.52 2.37 3.26 4.59 4.9 6.89a18.13 18.13 0 011.61 2.48c1.41 2.85.54 4.41-2.71 4.56s-6.33 0-9.49 0h-3a5.38 5.38 0 00-4.93 2.74c-2.42 3.76-5 7.44-7.61 11-2.23 3-4.94 5.19-9.11 5.19a10 10 0 01-9.16-5c-2.2-3.64-2.4-7.54 0-11.17s5.08-7 7.62-10.45c.78-1.08 1.54-2.17 2.25-3.28a4.42 4.42 0 00-2.08-6c-.37-.14-1.21.31-1.51.72-2.18 2.93-4.28 5.92-6.38 8.9-4.68 6.65-9.37 13.28-14 20-3.93 5.68-6.16 8.19-15.21 5.08C13.46 78.87 3.36 67.1.49 49.15c-3.43-21.52 11.35-42.89 33.17-48C45.93-1.66 57.55.66 68.25 7.73c6.2 4.1 6 14.6-.75 17.81a10.73 10.73 0 01-11.25-.72 23.18 23.18 0 00-12.57-4 22.91 22.91 0 00-22.33 18.26c-2.46 12.77 6.5 25.44 19.41 26.78.83.08 1.67 0 2.5.09 1.87.17 2.65-.5 2.61-2.53-.12-5.83.31-11.69-.14-17.49a8.28 8.28 0 019.11-9.13c8.3.46 16.65.05 25 .16a5.84 5.84 0 005.28-2.7c7.55-9.69 15.29-19.23 23.11-28.7C111.84 1.17 116.5.11 121.54 2a12.19 12.19 0 017.83 11.58c.03 10.15.01 20.31.01 30.47zm99.23-1.33c0 10.49-.08 21 0 31.48 0 4.74-2.26 7.94-6.12 10-3.68 2-7.37 1.3-10.83-.92-3.1-2-4.25-4.87-4.22-8.47q.11-12.73 0-25.48c0-2.52-.3-5-.47-7.54-1.65 1.84-3.35 3.64-4.94 5.53q-5 5.93-9.83 11.92c-2.88 3.55-2.87 3.57.19 7.26 2.23 2.68 4.51 5.33 6.73 8a32.22 32.22 0 012.72 3.56c2 3.22.55 6.2-3.14 6.24-10.83.12-21.66 0-32.49.09a4.27 4.27 0 01-4.3-2.73c-.78-1.76.17-3.14 1.31-4.48 3.47-4 6.78-8.18 10.23-12.18 1-1.12 1.59-2 .39-3.4-5.09-6.13-10.07-12.36-15.1-18.53-.19-.23-.57-.31-.86-.46a2.84 2.84 0 00-.35.86v30a11.87 11.87 0 01-2.17 7.48 11 11 0 01-12 4 11.66 11.66 0 01-7.55-9.67v-63c0-4.68 1.88-8.33 6.15-10.53 4.45-2.31 9.84-1.13 13.38 3.11 4.79 5.74 9.44 11.59 14.15 17.39 3.67 4.5 7.41 9 11 13.53 1.31 1.66 2.05 1.45 3.29-.08 3.85-4.79 7.83-9.47 11.78-14.17 4.91-5.86 9.75-11.76 14.78-17.51a9 9 0 0110.27-2.88c5.37 1.75 7.94 4.88 8 10.55.04 10.37 0 20.7 0 31.03zm6.89.28V9c0-5.94 2.14-8.19 8-8.25 10.65-.12 21.31-.19 32-.13 5.86 0 10.08 4.08 10.16 9.37a9.22 9.22 0 01-9.27 9.59c-5.66.11-11.32.12-17 0-2.26-.06-2.87.8-2.78 2.89.13 2.82.14 5.66 0 8.49-.1 2.05.76 2.56 2.64 2.49 3.33-.12 6.66-.08 10 0 5.12.09 9.05 3.66 9.31 8.38a9.16 9.16 0 01-8.82 9.56 101.76 101.76 0 01-10.48 0c-1.86 0-2.79.39-2.63 2.47.29 3.75.41 7.52.61 11.28 3.47.09 6.93.23 10.4.26 4.33.05 8.66 0 13 0a18.6 18.6 0 013 .06 1.78 1.78 0 011.33 2.89c-3.08 4.53-6.11 9.09-9.43 13.43a9.56 9.56 0 01-7.87 3.62c-8.32 0-16.65.08-25 0-5-.06-7.11-2.35-7.13-7.44-.06-11.67-.04-23.32-.04-34.96zm223.07 42.91h-14.48c-.83 0-1.67.06-2.49 0-3.75-.3-4.41-1.49-2.32-4.61 2.49-3.71 5.15-7.31 7.75-10.94 2.17-3 4.89-4.66 8.88-4.38 4.64.32 9.32.14 14 0a27.61 27.61 0 005.87-.76c4.1-1 5.37-5.43 2.38-8.37a14.57 14.57 0 00-4.1-2.74c-3.91-1.78-7.9-3.36-11.85-5a43.11 43.11 0 01-12.36-7.25c-12.36-11-9.06-28.56 2.92-36.74A28.6 28.6 0 01468.09.17c5.48-.17 10.91-.17 16.16 2 6.29 2.67 11.49 6.53 14.75 12.69 2.72 5.14 1.72 10-2.36 13.35a10.3 10.3 0 01-13.55-1.08c-1.55-1.72-3-3.55-4.47-5.33a9.13 9.13 0 00-10.73-2.67c-4.19 1.84-5.48 6.52-2.14 9.65 2.45 2.3 5.69 3.85 8.75 5.41 5.73 2.91 11.84 5.06 17.1 8.91 3.42 2.5 6.51 5.38 7.82 9.41 4.07 12.49.59 26.83-14.66 31.57a40.25 40.25 0 01-13.2 1.92c-4.33-.19-8.66-.08-12.99-.09z"/><path class="cls-1" d="M519.46 85.91H505c-.83 0-1.67.06-2.5 0-3.75-.3-4.4-1.49-2.31-4.61 2.49-3.71 5.15-7.31 7.75-10.94 2.17-3 4.88-4.66 8.87-4.38 4.64.32 9.32.14 14 0a27.52 27.52 0 005.86-.76c4.1-1 5.37-5.43 2.38-8.37a14.43 14.43 0 00-4.1-2.74c-3.9-1.78-7.89-3.36-11.85-5a43.25 43.25 0 01-12.36-7.25c-12.36-11-9.05-28.56 2.93-36.74A28.57 28.57 0 01529 .17c5.48-.21 10.93-.22 16.15 2 6.3 2.67 11.5 6.53 14.76 12.69 2.72 5.14 1.72 10-2.36 13.35A10.3 10.3 0 01544 27.13c-1.56-1.72-3-3.55-4.47-5.33a9.15 9.15 0 00-10.74-2.67c-4.18 1.84-5.47 6.52-2.14 9.65 2.46 2.3 5.7 3.85 8.76 5.41 5.73 2.91 11.83 5.06 17.09 8.91 3.43 2.5 6.52 5.38 7.83 9.41 4.06 12.49.59 26.83-14.67 31.57A40.22 40.22 0 01532.44 86c-4.32-.19-8.65-.08-12.98-.09zM341.35.65c-5.24.47-7.25 5-7.37 11.3-.19 10.27-.05 20.54-.05 30.81v28.31c0 1.67.14 3.36.1 5-.17 7.32 4.83 12.29 13.92 8 2.22-1 3.3-3.18 4-5.61.85-3.11.95-8.52 1-11.81V52.09h9.24c8.53-.05 15.35-3.75 20.26-11 3.83-5.65 4.21-11.89 4.09-17.24A24.51 24.51 0 00361.6.09h-14.14zm12.84 25.06v-10.2c0-1 .3-1.44 2.09-1.57 5.78-.42 10.83 1 13.85 4s3.79 7 2.13 11.46c-1.93 5.17-4.26 6.26-11.28 7.32a21.48 21.48 0 01-3.45.13h-2.19c-.75 0-1-.11-1-.15a.93.93 0 01-.13-.74 1.86 1.86 0 000-.41zM377 57.3a96.75 96.75 0 00-8.22 11.6c-3.43 5.48-2.58 11.78 1.78 14.95 4.2 3.06 11.26 3.33 14.82-1.81 1.58-2.3 3.25-4.53 4.86-6.81 6.84-9.63 3.33-7.75 15.25-8.12 2.8-.08 6.49 1.65 8.2-1.85s-1.68-5.64-3.27-8.1c-3.86-6-4-6-.18-11.45a45.28 45.28 0 014.9-5.1c.2 2.23.55 4.46.57 6.68.06 9-.11 18.08.06 27.11.13 7.34 4 11.4 10.33 11.48 6.58.09 10.67-3.8 10.82-11 .21-10.45.05-20.9.05-31.35 0-9.88-.17-19.77.06-29.64.13-5.8-2.33-9.77-7.15-12.18-4.71-2.29-10.11-1.02-14.14 3.58s-7.65 9.15-11.35 13.84l-6.19 8.38a34 34 0 01-4.8 6.49z"/></g></g></svg>